<?xml version="1.0" encoding="utf-8"?>
<!-- Generator: Adobe Illustrator 16.0.0, SVG Export Plug-In . SVG Version: 6.00 Build 0)  -->
<!DOCTYPE svg PUBLIC "-//W3C//DTD SVG 1.1//EN" "http://www.w3.org/Graphics/SVG/1.1/DTD/svg11.dtd">
<svg version="1.1" id="Layer_1" xmlns="http://www.w3.org/2000/svg" xmlns:xlink="http://www.w3.org/1999/xlink" x="0px" y="0px"
	 width="960.02px" height="960px" viewBox="419.99 0 960.02 960" enable-background="new 419.99 0 960.02 960" xml:space="preserve"
	>
<path d="M928.76,480l445.28-445.24c7.96-7.96,7.96-20.84,0-28.8c-7.96-7.92-20.84-7.92-28.76,0L900,451.24L454.72,5.96
	c-7.92-7.92-20.84-7.92-28.76,0c-7.96,7.96-7.96,20.84,0,28.8L871.24,480L425.96,925.28c-7.96,7.96-7.96,20.84,0,28.76
	c4,4,9.16,5.96,14.4,5.96c5.199,0,10.399-1.96,14.359-5.96L900,508.76l445.28,445.28c3.96,4,9.159,5.96,14.359,5.96
	s10.44-1.96,14.4-5.96c7.96-7.96,7.96-20.84,0-28.76L928.76,480z"/>
</svg>
