<?xml version="1.0" encoding="utf-8"?>
<!-- Generator: Adobe Illustrator 16.0.0, SVG Export Plug-In . SVG Version: 6.00 Build 0)  -->
<!DOCTYPE svg PUBLIC "-//W3C//DTD SVG 1.1//EN" "http://www.w3.org/Graphics/SVG/1.1/DTD/svg11.dtd">
<svg version="1.1" id="Layer_1" xmlns="http://www.w3.org/2000/svg" xmlns:xlink="http://www.w3.org/1999/xlink" x="0px" y="0px"
	 width="960.02px" height="960px" viewBox="0 0 960.02 960" enable-background="new 0 0 960.02 960" xml:space="preserve">
<path stroke="#000000" stroke-width="60" stroke-miterlimit="10" d="M506.654,477.191L919.182,64.701
	c7.375-7.375,7.375-19.307,0-26.682c-7.375-7.337-19.307-7.337-26.645,0L480.01,450.547L67.481,38.019
	c-7.337-7.337-19.307-7.337-26.644,0c-7.375,7.375-7.375,19.307,0,26.682l412.527,412.491L40.837,889.72
	c-7.375,7.375-7.375,19.307,0,26.645c3.706,3.705,8.486,5.521,13.341,5.521c4.815,0,9.633-1.816,13.302-5.521L480.01,503.836
	l412.527,412.528c3.669,3.705,8.485,5.521,13.302,5.521c4.818,0,9.674-1.816,13.342-5.521c7.375-7.375,7.375-19.308,0-26.645
	L506.654,477.191z"/>
</svg>
