<svg style="display:none;"><symbol viewBox="0 0 960.02 960" id="arrow"><title>arrow</title> <path stroke="#000000" stroke-width="60" stroke-miterlimit="10" d="M767.576,478.979c0-4.659-1.792-9.318-5.304-12.866
	L350.366,54.244c-7.095-7.096-18.636-7.096-25.731,0c-7.133,7.132-7.133,18.637,0,25.769L723.637,478.98L324.635,877.981
	c-7.133,7.098-7.133,18.638,0,25.733c7.095,7.097,18.636,7.097,25.731,0l411.87-411.833l0,0
	C765.784,488.298,767.576,483.639,767.576,478.979z"/> </symbol><symbol viewBox="0 0 960.02 960" id="close"><title>close</title> <path stroke="#000000" stroke-width="60" stroke-miterlimit="10" d="M506.654,477.191L919.182,64.701
	c7.375-7.375,7.375-19.307,0-26.682c-7.375-7.337-19.307-7.337-26.645,0L480.01,450.547L67.481,38.019
	c-7.337-7.337-19.307-7.337-26.644,0c-7.375,7.375-7.375,19.307,0,26.682l412.527,412.491L40.837,889.72
	c-7.375,7.375-7.375,19.307,0,26.645c3.706,3.705,8.486,5.521,13.341,5.521c4.815,0,9.633-1.816,13.302-5.521L480.01,503.836
	l412.527,412.528c3.669,3.705,8.485,5.521,13.302,5.521c4.818,0,9.674-1.816,13.342-5.521c7.375-7.375,7.375-19.308,0-26.645
	L506.654,477.191z"/> </symbol><symbol viewBox="0 0 960.02 859.071" id="downicon"><title>downicon</title> <polyline fill="#FFFFFF" stroke="#FFFFFF" stroke-width="60" stroke-linecap="round" stroke-linejoin="round" stroke-miterlimit="10" points="
	38.819,32.669 473.595,810.173 922.078,32.669 "/> </symbol></svg>