<svg style="display:none;"><symbol viewBox="419.99 0 960.02 960" id="arrow"><title>arrow</title> <path d="M1189.107,478.979c0-5.189-1.996-10.378-5.907-14.33L724.438,5.928c-7.903-7.904-20.756-7.904-28.66,0
	c-7.944,7.943-7.944,20.756,0,28.7l444.392,444.352L695.778,923.371c-7.944,7.904-7.944,20.758,0,28.66
	c7.903,7.904,20.756,7.904,28.66,0L1183.16,493.35l0,0C1187.111,489.358,1189.107,484.169,1189.107,478.979z"/> </symbol><symbol viewBox="419.99 0 960.02 960" id="close"><title>close</title> <path d="M928.76,480l445.28-445.24c7.96-7.96,7.96-20.84,0-28.8c-7.96-7.92-20.84-7.92-28.76,0L900,451.24L454.72,5.96
	c-7.92-7.92-20.84-7.92-28.76,0c-7.96,7.96-7.96,20.84,0,28.8L871.24,480L425.96,925.28c-7.96,7.96-7.96,20.84,0,28.76
	c4,4,9.16,5.96,14.4,5.96c5.199,0,10.399-1.96,14.359-5.96L900,508.76l445.28,445.28c3.96,4,9.159,5.96,14.359,5.96
	s10.44-1.96,14.4-5.96c7.96-7.96,7.96-20.84,0-28.76L928.76,480z"/> </symbol></svg>